# xmcd
#
# Track frame offsets:
# 150
# 9777
# 24331
# 39019
# 50131
# 60571
# 76178
# 88123
# 102124
# 114119
# 126129
# 139803
# 149122
# 162856
# 172433
# 183614
# 197758
# 208889
# 214575
# 224484
#
# Disc length: 3153 seconds
#
#
# Revision: 0
# Processed by: cddbd v1.5.1PL2 Copyright (c) Steve Scherf et al.
# Submitted via: FreeRIP 2.945 
#
DISCID=210c4f14
DTITLE=TVBCG - The Very Best of Country Gospel
DYEAR=1900
DGENRE=Gospel
TTITLE0=Skeeter Davis - Turn your radio on
TTITLE1=Gatlin Brothers - Prodigal Son
TTITLE2=Connie Smith - Jesus is your ticket to heaven
TTITLE3=Jeanne Pruett - Standing on the promises
TTITLE4=Don Gibson - There is power in the blood
TTITLE5=Jack Greene - Why me
TTITLE6=Jordanaires - Crying in the chapel
TTITLE7=Jeannie Seely - One day at a time
TTITLE8=Ray Price - Peace in the valley
TTITLE9=Gatlin Brothers - Healin Stream
TTITLE10=Johnny Russell - Baptism of Jesse Taylor
TTITLE11=Pat Boone - A Wonderful time up here
TTITLE12=Bobby Helms - What a friend we have in Jesus
TTITLE13=Jeannie C Riley - I don't deserve a mansion
TTITLE14=Porter Wagoner - What would you do
TTITLE15=Susan Raye - You can't be a beacon
TTITLE16=Stoney Cooper Wilma Lee - Keep on the sunnt side
TTITLE17=Narvel Felts - Rock of ages
TTITLE18=David Houston - Church in the wildwood
TTITLE19=Bill Phillips - I saw the Light
EXTD=
EXTT0=
EXTT1=
EXTT2=
EXTT3=
EXTT4=
EXTT5=
EXTT6=
EXTT7=
EXTT8=
EXTT9=
EXTT10=
EXTT11=
EXTT12=
EXTT13=
EXTT14=
EXTT15=
EXTT16=
EXTT17=
EXTT18=
EXTT19=
PLAYORDER=
